# AST/ASF file generated using VICON BodyLanguage
# -----------------------------------------------
:version 1.10
:name VICON
:units
  mass 1.0
  length 0.45
  angle deg
:documentation
   .ast/.asf automatically generated from VICON data using
   VICON BodyBuilder and BodyLanguage model FoxedUp or BRILLIANT.MOD
:root
   order TX TY TZ RX RY RZ
   axis XYZ
   position 0 0 0  
   orientation 0 0 0 
:bonedata
  begin
     id 1 
     name lhipjoint
     direction 0.677091 -0.635792 0.370561 
     length 2.74323 
     axis 0 0 0  XYZ
  end
  begin
     id 2 
     name lfemur
     direction 0.34202 -0.939693 0  
     length 7.44995  
     axis 0 0 20  XYZ
    dof rx ry rz
    limits (-160.0 20.0)
           (-70.0 70.0)
           (-60.0 70.0)
  end
  begin
     id 3 
     name ltibia
     direction 0.34202 -0.939693 0   
     length 7.34467   
     axis 0 0 20   XYZ
    dof rx
    limits (-10.0 170.0)
  end
  begin
     id 4 
     name lfoot
     direction 0.101953 -0.280114 0.954537   
     length 1.72105   
     axis -90 7.62852e-016 20   XYZ
    dof rx rz
    limits (-45.0 90.0)
           (-70.0 20.0)
  end
  begin
     id 5 
     name ltoes
     direction 1.53537e-011 -4.21915e-011 1   
     length 0.865872   
     axis -90 7.62852e-016 20   XYZ
    dof rx
    limits (-90.0 20.0)
  end
  begin
     id 6 
     name rhipjoint
     direction -0.695735 -0.620586 0.361699   
     length 2.81045  
     axis 0 0 0  XYZ 
  end
  begin
     id 7 
     name rfemur
     direction -0.34202 -0.939693 0   
     length 7.29387   
     axis 0 0 -20   XYZ
    dof rx ry rz
    limits (-160.0 20.0)
           (-70.0 70.0)
           (-70.0 60.0)
  end
  begin
     id 8 
     name rtibia
     direction -0.34202 -0.939693 0   
     length 7.44935   
     axis 0 0 -20   XYZ
    dof rx
    limits (-10.0 170.0)
 end
 begin
     id 9 
     name rfoot
     direction -0.104163 -0.286184 0.952496   
     length 1.77731  
     axis -90 -7.62852e-016 -20   XYZ
    dof rx rz
    limits (-45.0 90.0)
           (-20.0 70.0)
  end
  begin
     id 10 
     name rtoes
     direction -1.5355e-011 -4.21888e-011 1   
     length 0.892424   
     axis -90 -7.62852e-016 -20   XYZ
    dof rx
    limits (-90.0 20.0)
  end
  begin
     id 11 
     name lowerback
     direction 0.0100202 0.997226 -0.0737589   
     length 2.16892   
     axis 0 0 0   XYZ
    dof rx ry rz
    limits (-20.0 45.0)
           (-30.0 30.0)
           (-30.0 30.0)
  end
  begin
     id 12 
     name upperback
     direction 0.00432398 0.999988 -0.00215019   
     length 2.17326   
     axis 0 0 0   XYZ
    dof rx ry rz
    limits (-20.0 45.0)
           (-30.0 30.0)
           (-30.0 30.0)
  end
  begin
     id 13 
     name thorax
     direction -0.00195047 0.999485 0.0320434   
     length 2.18139   
     axis 0 0 0   XYZ
    dof rx ry rz
    limits (-20.0 45.0)
           (-30.0 30.0)
           (-30.0 30.0)
  end
  begin
     id 14 
     name lowerneck
     direction 0.00782762 0.986241 0.165128   
     length 1.88415   
     axis 0 0 0   XYZ
    dof rx ry rz
    limits (-20.0 45.0)
           (-30.0 30.0)
           (-30.0 30.0)
  end
  begin
     id 15 
     name upperneck
     direction 0.00988667 0.981098 -0.193258   
     length 1.9242   
     axis 0 0 0   XYZ
    dof rx ry rz
    limits (-20.0 45.0)
           (-30.0 30.0)
           (-30.0 30.0)
  end
  begin
     id 16
     name head
     direction 0.00252199 0.996513 -0.0833958  
     length 1.93887  
     axis 0 0 0   XYZ
    dof rx ry rz
    limits (-20.0 45.0)
           (-30.0 30.0)
           (-30.0 30.0)
  end
  begin
     id 17 
     name lclavicle
     direction 0.929492 0.368193 -0.0218667  
     length 3.5955  
     axis 0 0 0   XYZ
    dof ry rz
    limits (-20.0 10.0)
           (0.0 20.0)
  end
  begin
     id 18 
     name lhumerus
     direction 1 -4.48972e-011 1.41911e-027   
     length 5.2795   
     axis 180 -30 -90   XYZ
    dof rx ry rz
    limits (-60.0 90.0)
           (-90.0 90.0)
           (-90.0 90.0)
  end
  begin
     id 19
     name lradius
     direction 1 -4.48963e-011 7.05772e-027   
     length 3.53504   
     axis 180 -30 -90   XYZ
    dof rx
    limits (-10.0 170.0)
  end
  begin
     id 20
     name lwrist
     direction 1 -4.48957e-011 9.54866e-027   
     length 1.76752   
     axis -7.69462e-015 90 90   XYZ
    dof ry
    limits (-180.0 0.0)
 end
  begin
     id 21 
     name lhand
     direction 1 -4.48979e-011 1.90973e-026   
     length 0.667948   
     axis -1.21857e-014 90 90   XYZ
    dof rx rz
    limits (-90.0 90.0)
           (-45.0 45.0)
  end
  begin
     id 22 
     name lfingers
     direction 1 -4.48987e-011 3.81946e-026   
     length 0.538517   
     axis -2.43714e-014 90 90   XYZ
    dof rx
    limits (0.0 90.0)
  end
  begin
     id 23
     name lthumb
     direction 0.707107 -6.34962e-011 0.707107   
     length 0.773206   
     axis -90 45 2.85299e-015   XYZ
    dof rx rz
    limits (-45.0 45.0)
           (-45.0 45.0)
  end
  begin
     id 24 
     name rclavicle
     direction -0.898763 0.414256 -0.143584   
     length 3.5176  
     axis 0 0 0   XYZ 
    dof ry rz
    limits (-10.0 20.0)
           (-20.0 0.0)
  end
  begin
     id 25 
     name rhumerus
     direction -1 -4.48971e-011 1.129e-027  
     length 5.25035   
     axis 180 30 90   XYZ
    dof rx ry rz
    limits (-90.0 60.0)
           (-90.0 90.0)
           (-90.0 90.0)
  end
  begin
     id 26 
     name rradius
     direction -1 -4.48955e-011 6.34664e-027   
     length 3.58884   
     axis 180 30 90   XYZ
    dof rx
    limits (-10.0 170.0)
  end
  begin
     id 27 
     name rwrist
     direction -1 -4.48966e-011 9.54866e-027   
     length 1.79442   
     axis -7.69462e-015 -90 -90   XYZ
    dof ry
    limits (-180.0 0.0)
  end
  begin
     id 28
     name rhand
     direction -1 -4.48973e-011 1.90973e-026   
     length 0.779235   
     axis -1.21857e-014 -90 -90   XYZ
    dof rx rz
    limits (-90.0 90.0)
           (-45.0 45.0)
  end
  begin
     id 29
     name rfingers
     direction -1 -4.48984e-011 3.81946e-026   
     length 0.62824   
     axis -2.43714e-014 -90 -90   XYZ
    dof rx
    limits (0.0 90.0)
  end
  begin
     id 30
     name rthumb
     direction -0.707107 -6.34968e-011 0.707107   
     length 0.90203   
     axis -90 -45 -2.85299e-015   XYZ
    dof rx rz
    limits (-45.0 45.0)
           (-45.0 45.0)
  end
:hierarchy
  begin
    root lhipjoint rhipjoint lowerback
    lhipjoint lfemur
    lfemur ltibia
    ltibia lfoot
    lfoot ltoes
    rhipjoint rfemur
    rfemur rtibia
    rtibia rfoot
    rfoot rtoes
    lowerback upperback
    upperback thorax
    thorax lowerneck lclavicle rclavicle
    lowerneck upperneck
    upperneck head
    lclavicle lhumerus
    lhumerus lradius
    lradius lwrist
    lwrist lhand lthumb
    lhand lfingers
    rclavicle rhumerus
    rhumerus rradius
    rradius rwrist
    rwrist rhand rthumb
    rhand rfingers
  end

#!OML:ASF I:\Random Stuff\random\construction\7_22_03\Session 2\subj1.ASF
:FULLY-SPECIFIED
:DEGREES
127
root -18.0967 17.7342 -3.78366 -125.857 84.1307 -130.937
lowerback 3.72308 2.33996 -2.93145
upperback -0.379419 2.98171 -0.273413
thorax -2.61146 1.5267 1.17988
lowerneck -21.9997 -1.30073 -0.24397
upperneck 32.6667 -1.39863 0.83711
head 15.1004 -0.240013 0.193754
rclavicle 1.99779e-014 -1.03368e-014
rhumerus -35.7297 -6.56544 -71.1659
rradius 30.067
rwrist 3.61311
rhand -19.8118 18.355
rfingers 7.12502
rthumb 6.52154 -11.5246
lclavicle 1.99779e-014 -1.03368e-014
lhumerus -32.0326 -5.43363 75.2301
lradius 39.7965
lwrist 30.3393
lhand -25.201 61.7998
lfingers 7.12502
lthumb 1.31746 268.224
rfemur -8.0267 3.84124 17.1384
rtibia 18.733
rfoot -3.67956 -17.3306
rtoes -27.5655
lfemur -13.419 -6.86788 -19.1984
ltibia 22.4206
lfoot -15.2272 6.67505
ltoes -16.7513
128
root -18.0887 17.7358 -3.81902 -126.59 83.9351 -131.417
lowerback 3.77117 2.32636 -3.07457
upperback -0.308199 2.95892 -0.174338
thorax -2.57675 1.51686 1.36258
lowerneck -21.9606 -1.42077 -0.326258
upperneck 32.839 -1.55308 0.896099
head 15.1746 -0.300732 0.20516
rclavicle 3.20043e-014 1.98785e-014
rhumerus -35.2551 -3.58219 -73.7675
rradius 33.2114
rwrist 1.97865
rhand -20.0635 19.8192
rfingers 7.12502
rthumb 6.27851 -10.0678
lclavicle 3.20043e-014 1.98785e-014
lhumerus -31.4001 -7.42331 77.3836
lradius 41.6009
lwrist 31.1668
lhand -24.1698 61.4994
lfingers 7.12502
lthumb 2.31333 268.533
rfemur -8.41357 3.00775 17.1626
rtibia 19.9692
rfoot -3.64358 -16.2427
rtoes -27.4498
lfemur -13.0387 -6.95918 -19.2269
ltibia 22.2736
lfoot -15.2472 6.54905
ltoes -16.3959
129
root -18.0847 17.7351 -3.84911 -127.068 83.7063 -131.647
lowerback 3.91128 2.32922 -3.14406
upperback -0.270201 2.9566 -0.1106
thorax -2.62312 1.51722 1.46187
lowerneck -21.9145 -1.50532 -0.36794
upperneck 33.0505 -1.69883 1.04037
head 15.2671 -0.337764 0.247778
rclavicle 6.65929e-015 -3.97569e-015
rhumerus -34.8854 -0.848715 -76.186
rradius 36.3712
rwrist 0.85727
rhand -20.1727 20.9113
rfingers 7.12502
rthumb 6.17305 -8.97878
lclavicle 6.65929e-015 -3.97569e-015
lhumerus -30.8882 -9.80122 79.5914
lradius 43.7416
lwrist 32.3927
lhand -23.255 61.1559
lfingers 7.12502
lthumb 3.19682 268.888
rfemur -8.85798 2.18142 17.2424
rtibia 21.2225
rfoot -3.61019 -15.1357
rtoes -27.1612
lfemur -12.701 -7.03871 -19.1866
ltibia 22.145
lfoot -15.2657 6.3786
ltoes -15.8768
130
root -18.0847 17.7353 -3.87489 -127.665 83.4329 -132.03
lowerback 4.08857 2.28953 -3.196
upperback -0.247065 2.89652 -0.0516248
thorax -2.70149 1.48912 1.54861
lowerneck -21.8698 -1.53523 -0.36351
upperneck 33.2139 -1.79042 1.19811
head 15.3372 -0.345501 0.298261
rclavicle -2.82274e-014 1.66979e-014
rhumerus -34.7326 1.59479 -78.3988
rradius 39.997
rwrist 0.427099
rhand -19.9086 21.4332
rfingers 7.12502
rthumb 6.42809 -8.44923
lclavicle -2.82274e-014 1.66979e-014
lhumerus -30.4664 -12.0572 81.5912
lradius 45.874
lwrist 32.8064
lhand -23.1765 60.2534
lfingers 7.12502
lthumb 3.27266 269.792
rfemur -9.36142 1.38277 17.3571
rtibia 22.4941
rfoot -3.57598 -14.2484
rtoes -27.2241
lfemur -12.4163 -7.2 -19.0897
ltibia 22.0077
lfoot -15.3474 6.20707
ltoes -15.6588
131
root -18.0805 17.7357 -3.89927 -128.213 83.2186 -132.34
lowerback 4.2338 2.23195 -3.29208
upperback -0.195535 2.81239 0.0171616
thorax -2.7337 1.44893 1.67417
lowerneck -21.8421 -1.57691 -0.346565
upperneck 33.3543 -1.86773 1.24648
head 15.3987 -0.363361 0.302757
rclavicle 6.95746e-016 -3.97569e-015
rhumerus -34.5128 3.84702 -80.3433
rradius 43.4735
rwrist 0.559147
rhand -19.4326 22.1517
rfingers 7.12502
rthumb 6.88755 -7.71625
lclavicle 6.95746e-016 -3.97569e-015
lhumerus -30.1184 -14.1855 83.5404
lradius 48.1192
lwrist 33.1437
lhand -24.6719 59.6088
lfingers 7.12502
lthumb 1.82843 449.581
rfemur -9.82485 0.772501 17.4356
rtibia 23.7316
rfoot -3.71817 -13.5621
rtoes -27.9865
lfemur -12.0859 -7.25973 -19.0432
ltibia 21.8633
lfoot -15.3156 6.07108
ltoes -16.667
132
root -18.0685 17.7351 -3.92252 -128.637 83.1151 -132.533
lowerback 4.30973 2.19528 -3.42103
upperback -0.143028 2.75579 0.0335175
thorax -2.72606 1.42205 1.76527
lowerneck -21.7808 -1.61917 -0.320174
upperneck 33.51 -1.94335 1.28445
head 15.4598 -0.379873 0.302029
rclavicle 7.45443e-015 -8.74653e-015
rhumerus -34.044 6.28889 -82.2037
rradius 46.1653
rwrist 0.662274
rhand -19.3134 23.2057
rfingers 7.12502
rthumb 7.0026 -6.65842
lclavicle 7.45443e-015 -8.74653e-015
lhumerus -29.8311 -16.1918 85.352
lradius 50.3878
lwrist 33.0572
lhand -24.5754 59.7574
lfingers 7.12502
lthumb 1.92161 449.728
rfemur -10.3114 0.262648 17.4389
rtibia 24.9258
rfoot -4.34915 -12.5396
rtoes -28.6732
lfemur -11.6961 -7.21422 -19.086
ltibia 21.6774
lfoot -15.1772 5.97209
ltoes -17.8116
133
root -18.0529 17.7346 -3.94144 -129.167 83.0548 -132.858
lowerback 4.38274 2.15285 -3.58518
upperback -0.120988 2.68845 0.0264937
thorax -2.74781 1.3909 1.85227
lowerneck -21.6933 -1.64387 -0.399583
upperneck 33.7014 -1.99323 1.44867
head 15.5356 -0.378804 0.379158
rclavicle -8.44835e-015 -2.22639e-014
rhumerus -33.6734 8.67468 -83.9495
rradius 48.8227
rwrist 1.08534
rhand -19.281 24.1175
rfingers 7.12502
rthumb 7.03394 -5.74561
lclavicle -8.44835e-015 -2.22639e-014
lhumerus -29.6973 -18.1098 87.043
lradius 52.7487
lwrist 32.6947
lhand -23.4254 59.987
lfingers 7.12502
lthumb 3.03231 449.945
rfemur -10.8526 -0.175742 17.4121
rtibia 26.0701
rfoot -5.49078 -11.0359
rtoes -27.7044
lfemur -11.2755 -7.18762 -19.154
ltibia 21.4284
lfoot -15.1356 5.79759
ltoes -17.7544
134
root -18.0357 17.7361 -3.96094 -129.813 83.0542 -133.341
lowerback 4.44477 2.11487 -3.79767
upperback -0.114176 2.62449 0.0240412
thorax -2.78142 1.36254 1.97093
lowerneck -21.6307 -1.67221 -0.475705
upperneck 33.9273 -2.02138 1.5392
head 15.6327 -0.378389 0.429233
rclavicle -3.77691e-015 -1.82882e-014
rhumerus -33.5164 10.5276 -85.4396
rradius 51.7401
rwrist 2.06485
rhand -18.5469 24.9475
rfingers 7.12502
rthumb 7.74252 -4.89077
lclavicle -3.77691e-015 -1.82882e-014
lhumerus -29.6605 -19.9127 88.7231
lradius 55.1151
lwrist 31.9797
lhand -23.1254 59.9468
lfingers 7.12502
lthumb 3.32204 449.901
rfemur -11.4943 -0.549161 17.3122
rtibia 27.1113
rfoot -6.6776 -9.26934
rtoes -25.5502
lfemur -10.8813 -7.21438 -19.28
ltibia 21.1709
lfoot -15.2676 5.62072
ltoes -17.0453
135
root -18.0176 17.7387 -3.9826 -130.122 83.1095 -133.556
lowerback 4.44911 2.07849 -3.99893
upperback -0.124641 2.56507 0.019517
thorax -2.79976 1.33628 2.08272
lowerneck -21.55 -1.73438 -0.469578
upperneck 34.1639 -2.06837 1.45792
head 15.7275 -0.400641 0.388163
rclavicle -1.19271e-014 1.19271e-014
rhumerus -33.3658 12.1604 -86.7687
rradius 54.4805
rwrist 3.04168
rhand -18.6613 24.6656
rfingers 7.12502
rthumb 7.63204 -5.17673
lclavicle -1.19271e-014 1.19271e-014
lhumerus -29.6987 -21.5803 90.3472
lradius 57.3583
lwrist 31.0438
lhand -23.3694 58.7542
lfingers 7.12502
lthumb 3.08632 448.712
rfemur -12.26 -0.811492 17.1962
rtibia 28.0086
rfoot -7.55457 -7.51473
rtoes -23.5826
lfemur -10.5625 -7.26824 -19.4251
ltibia 20.9553
lfoot -15.5042 5.58799
ltoes -16.5687
136
root -17.9976 17.7373 -4.00163 -130.314 83.1289 -133.652
lowerback 4.46508 2.04328 -4.10013
upperback -0.141862 2.51089 -0.0176925
thorax -2.82567 1.31125 2.10402
lowerneck -21.4119 -1.83166 -0.463604
upperneck 34.3745 -2.18075 1.41209
head 15.7982 -0.445118 0.349438
rclavicle 9.0447e-015 7.15625e-015
rhumerus -33.2128 13.7483 -88.0089
rradius 56.9903
rwrist 3.90686
rhand -17.9187 25.3217
rfingers 7.12502
rthumb 8.34884 -4.49329
lclavicle 9.0447e-015 7.15625e-015
lhumerus -29.8119 -23.2284 91.8712
lradius 59.5817
lwrist 30.3569
lhand -23.6441 58.3239
lfingers 7.12502
lthumb 2.82111 448.285
rfemur -12.9744 -1.0469 17.174
rtibia 28.7342
rfoot -8.28477 -6.00169
rtoes -22.4395
lfemur -10.2505 -7.33622 -19.5151
ltibia 20.7925
lfoot -15.7364 5.56312
ltoes -16.0047
137
root -17.9766 17.7324 -4.0174 -130.763 83.1343 -133.981
lowerback 4.54589 2.03813 -4.17298
upperback -0.152886 2.49429 -0.100332
thorax -2.88078 1.30476 2.05766
lowerneck -21.3004 -1.91368 -0.450427
upperneck 34.5862 -2.3159 1.47964
head 15.8786 -0.480303 0.353744
rclavicle 3.1408e-014 -7.15625e-015
rhumerus -33.1522 15.0936 -89.1065
rradius 59.3829
rwrist 4.80481
rhand -17.1344 25.9713
rfingers 7.12502
rthumb 9.10569 -3.81214
lclavicle 3.1408e-014 -7.15625e-015
lhumerus -29.9766 -24.8657 93.307
lradius 61.7132
lwrist 29.9036
lhand -23.9037 58.3402
lfingers 7.12502
lthumb 2.57038 448.304
rfemur -13.6081 -1.27926 17.1677
rtibia 29.2629
rfoot -8.92762 -4.62394
rtoes -21.4351
lfemur -9.94926 -7.49463 -19.6029
ltibia 20.6878
lfoot -15.9597 5.55648
ltoes -15.1681
138
root -17.9541 17.7284 -4.02972 -130.745 83.1827 -133.894
lowerback 4.58763 2.02838 -4.3098
upperback -0.170062 2.47086 -0.129616
thorax -2.92507 1.29607 2.10383
lowerneck -21.1984 -1.95185 -0.53072
upperneck 34.7891 -2.35479 1.56468
head 15.9581 -0.486037 0.400694
rclavicle -1.43125e-014 1.66979e-014
rhumerus -33.1838 16.3608 -90.0622
rradius 61.6139
rwrist 5.49129
rhand -16.8632 26.722
rfingers 7.12502
rthumb 9.36739 -3.04984
lclavicle -1.43125e-014 1.66979e-014
lhumerus -30.2005 -26.1952 94.7146
lradius 63.6393
lwrist 29.2877
lhand -23.9966 58.0192
lfingers 7.12502
lthumb 2.48065 447.984
rfemur -14.2919 -1.27946 17.164
rtibia 29.5786
rfoot -9.34889 -3.49557
rtoes -20.1597
lfemur -9.74164 -7.60092 -19.6766
ltibia 20.6306
lfoot -16.1894 5.62115
ltoes -14.5687
139
root -17.9296 17.7268 -4.04139 -129.968 83.27 -133.15
lowerback 4.50333 1.99213 -4.45805
upperback -0.189269 2.41925 -0.0907022
thorax -2.90205 1.27269 2.2333
lowerneck -21.0911 -2.01144 -0.715794
upperneck 34.9702 -2.37162 1.60917
head 16.0266 -0.504873 0.452398
rclavicle -2.06736e-014 -9.54166e-015
rhumerus -33.2318 17.6785 -90.9149
rradius 63.6212
rwrist 5.80316
rhand -16.7798 26.283
rfingers 7.12502
rthumb 9.44783 -3.48524
lclavicle -2.06736e-014 -9.54166e-015
lhumerus -30.3494 -27.0292 95.9971
lradius 65.4045
lwrist 29.2248
lhand -23.6525 56.9554
lfingers 7.12502
lthumb 2.81294 446.917
rfemur -15.0559 -1.08226 17.1747
rtibia 29.6739
rfoot -9.63219 -2.71695
rtoes -19.4325
lfemur -9.6282 -7.57915 -19.718
ltibia 20.5755
lfoot -16.3896 5.72566
ltoes -14.1562
140
root -17.904 17.724 -4.05239 -129.267 83.3381 -132.513
lowerback 4.42551 1.96646 -4.53868
upperback -0.207243 2.38431 -0.0915437
thorax -2.87774 1.2563 2.28243
lowerneck -21.0484 -2.11084 -0.810597
upperneck 35.1826 -2.47867 1.63339
head 16.1263 -0.551128 0.461866
rclavicle -2.5842e-015 -1.03368e-014
rhumerus -33.2189 18.8777 -91.6671
rradius 65.3598
rwrist 5.89956
rhand -16.084 26.2867
rfingers 7.12502
rthumb 10.1191 -3.44997
lclavicle -2.5842e-015 -1.03368e-014
lhumerus -30.5334 -27.8185 97.134
lradius 67.011
lwrist 29.1325
lhand -23.4934 56.6457
lfingers 7.12502
lthumb 2.9666 446.605
rfemur -15.7894 -0.77551 17.1685
rtibia 29.555
rfoot -9.73931 -2.32362
rtoes -19.1446
lfemur -9.51406 -7.62481 -19.7521
ltibia 20.4902
lfoot -16.5937 5.91454
ltoes -13.8496
141
root -17.8762 17.7202 -4.05856 -129.594 83.2855 -132.825
lowerback 4.5192 1.95355 -4.52011
upperback -0.218091 2.36142 -0.158723
thorax -2.93623 1.24557 2.20107
lowerneck -21.0429 -2.20286 -0.790426
upperneck 35.4005 -2.61283 1.63819
head 16.2365 -0.594732 0.437378
rclavicle 1.53064e-014 3.57812e-014
rhumerus -33.2203 19.7426 -92.3071
rradius 66.8796
rwrist 5.94142
rhand -16.1553 26.4048
rfingers 7.12502
rthumb 10.0503 -3.33518
lclavicle 1.53064e-014 3.57812e-014
lhumerus -30.8236 -28.6517 98.147
lradius 68.4449
lwrist 29.0968
lhand -23.4724 56.192
lfingers 7.12502
lthumb 2.98687 446.151
rfemur -16.3465 -0.376797 17.1816
rtibia 29.2536
rfoot -9.64339 -2.45676
rtoes -19.5013
lfemur -9.30783 -7.79665 -19.7608
ltibia 20.3686
lfoot -16.7762 6.07751
ltoes -13.8279
